<svg width="204" height="42" viewBox="0 0 204 42" fill="none" xmlns="http://www.w3.org/2000/svg">
<path d="M15.948 0.799998L6.3 41.732H0.36L10.008 0.799998H15.948ZM30.8205 35L24.7005 26.576V35H18.5445V8.36H24.7005V23.084L30.7845 14.912H38.3805L30.0285 24.992L38.4525 35H30.8205ZM43.8944 12.824C42.8144 12.824 41.9264 12.512 41.2304 11.888C40.5584 11.24 40.2224 10.448 40.2224 9.512C40.2224 8.552 40.5584 7.76 41.2304 7.136C41.9264 6.488 42.8144 6.164 43.8944 6.164C44.9504 6.164 45.8144 6.488 46.4864 7.136C47.1824 7.76 47.5304 8.552 47.5304 9.512C47.5304 10.448 47.1824 11.24 46.4864 11.888C45.8144 12.512 44.9504 12.824 43.8944 12.824ZM46.9544 14.912V35H40.7984V14.912H46.9544ZM59.5876 35.288C57.8356 35.288 56.2756 34.988 54.9076 34.388C53.5396 33.788 52.4596 32.972 51.6676 31.94C50.8756 30.884 50.4316 29.708 50.3356 28.412H56.4196C56.4916 29.108 56.8156 29.672 57.3916 30.104C57.9676 30.536 58.6756 30.752 59.5156 30.752C60.2836 30.752 60.8716 30.608 61.2796 30.32C61.7116 30.008 61.9276 29.612 61.9276 29.132C61.9276 28.556 61.6276 28.136 61.0276 27.872C60.4276 27.584 59.4556 27.272 58.1116 26.936C56.6716 26.6 55.4716 26.252 54.5116 25.892C53.5516 25.508 52.7236 24.92 52.0276 24.128C51.3316 23.312 50.9836 22.22 50.9836 20.852C50.9836 19.7 51.2956 18.656 51.9196 17.72C52.5676 16.76 53.5036 16.004 54.7276 15.452C55.9756 14.9 57.4516 14.624 59.1556 14.624C61.6756 14.624 63.6556 15.248 65.0956 16.496C66.5596 17.744 67.3996 19.4 67.6156 21.464H61.9276C61.8316 20.768 61.5196 20.216 60.9916 19.808C60.4876 19.4 59.8156 19.196 58.9756 19.196C58.2556 19.196 57.7036 19.34 57.3196 19.628C56.9356 19.892 56.7436 20.264 56.7436 20.744C56.7436 21.32 57.0436 21.752 57.6436 22.04C58.2676 22.328 59.2276 22.616 60.5236 22.904C62.0116 23.288 63.2236 23.672 64.1596 24.056C65.0956 24.416 65.9116 25.016 66.6076 25.856C67.3276 26.672 67.6996 27.776 67.7236 29.168C67.7236 30.344 67.3876 31.4 66.7156 32.336C66.0676 33.248 65.1196 33.968 63.8716 34.496C62.6476 35.024 61.2196 35.288 59.5876 35.288ZM83.8378 14.696C86.1418 14.696 87.9898 15.464 89.3818 17C90.7738 18.512 91.4698 20.6 91.4698 23.264V35H85.3498V24.092C85.3498 22.748 85.0018 21.704 84.3058 20.96C83.6098 20.216 82.6738 19.844 81.4978 19.844C80.3218 19.844 79.3858 20.216 78.6898 20.96C77.9938 21.704 77.6458 22.748 77.6458 24.092V35H71.4898V8.36H77.6458V17.612C78.2698 16.724 79.1218 16.016 80.2018 15.488C81.2818 14.96 82.4938 14.696 83.8378 14.696Z" fill="black"/>
<path d="M116.556 9.728L115.728 14.588H108.996L105.396 35H99.2396L102.84 14.588H96.1436L97.0076 9.728H116.556ZM124.361 35.288C122.633 35.288 121.097 34.94 119.753 34.244C118.409 33.548 117.365 32.564 116.621 31.292C115.901 30.02 115.541 28.544 115.541 26.864C115.541 24.584 116.081 22.508 117.161 20.636C118.241 18.764 119.729 17.3 121.625 16.244C123.521 15.164 125.633 14.624 127.961 14.624C129.689 14.624 131.225 14.984 132.569 15.704C133.937 16.4 134.993 17.384 135.737 18.656C136.481 19.928 136.853 21.404 136.853 23.084C136.853 25.388 136.301 27.476 135.197 29.348C134.117 31.196 132.617 32.648 130.697 33.704C128.801 34.76 126.689 35.288 124.361 35.288ZM125.225 29.996C126.233 29.996 127.133 29.696 127.925 29.096C128.741 28.472 129.365 27.68 129.797 26.72C130.253 25.736 130.481 24.716 130.481 23.66C130.481 22.46 130.157 21.536 129.509 20.888C128.861 20.24 128.045 19.916 127.061 19.916C126.029 19.916 125.117 20.228 124.325 20.852C123.557 21.452 122.957 22.244 122.525 23.228C122.093 24.212 121.877 25.244 121.877 26.324C121.877 27.5 122.189 28.412 122.813 29.06C123.437 29.684 124.241 29.996 125.225 29.996ZM138.679 24.92C139.039 22.856 139.747 21.044 140.803 19.484C141.859 17.924 143.131 16.724 144.619 15.884C146.107 15.044 147.679 14.624 149.335 14.624C150.655 14.624 151.807 14.9 152.791 15.452C153.799 16.004 154.531 16.748 154.987 17.684L156.643 8.36H162.799L158.083 35H151.927L152.431 32.12C151.663 33.08 150.703 33.848 149.551 34.424C148.399 35 147.115 35.288 145.699 35.288C144.283 35.288 143.023 34.964 141.919 34.316C140.839 33.668 139.987 32.744 139.363 31.544C138.763 30.344 138.463 28.94 138.463 27.332C138.463 26.588 138.535 25.784 138.679 24.92ZM153.727 24.956C153.799 24.524 153.835 24.128 153.835 23.768C153.835 22.592 153.487 21.668 152.791 20.996C152.119 20.324 151.255 19.988 150.199 19.988C148.975 19.988 147.859 20.432 146.851 21.32C145.843 22.184 145.207 23.384 144.943 24.92C144.871 25.352 144.835 25.748 144.835 26.108C144.835 27.284 145.171 28.22 145.843 28.916C146.539 29.588 147.403 29.924 148.435 29.924C149.659 29.924 150.775 29.48 151.783 28.592C152.791 27.704 153.439 26.492 153.727 24.956ZM171.717 35.288C169.989 35.288 168.453 34.94 167.109 34.244C165.765 33.548 164.721 32.564 163.977 31.292C163.257 30.02 162.897 28.544 162.897 26.864C162.897 24.584 163.437 22.508 164.517 20.636C165.597 18.764 167.085 17.3 168.981 16.244C170.877 15.164 172.989 14.624 175.317 14.624C177.045 14.624 178.581 14.984 179.925 15.704C181.293 16.4 182.349 17.384 183.093 18.656C183.837 19.928 184.209 21.404 184.209 23.084C184.209 25.388 183.657 27.476 182.553 29.348C181.473 31.196 179.973 32.648 178.053 33.704C176.157 34.76 174.045 35.288 171.717 35.288ZM172.581 29.996C173.589 29.996 174.489 29.696 175.281 29.096C176.097 28.472 176.721 27.68 177.153 26.72C177.609 25.736 177.837 24.716 177.837 23.66C177.837 22.46 177.513 21.536 176.865 20.888C176.217 20.24 175.401 19.916 174.417 19.916C173.385 19.916 172.473 20.228 171.681 20.852C170.913 21.452 170.313 22.244 169.881 23.228C169.449 24.212 169.233 25.244 169.233 26.324C169.233 27.5 169.545 28.412 170.169 29.06C170.793 29.684 171.597 29.996 172.581 29.996ZM193.811 35.288C192.227 35.288 190.799 35.036 189.527 34.532C188.279 34.028 187.295 33.332 186.575 32.444C185.855 31.532 185.495 30.488 185.495 29.312C185.495 29.144 185.519 28.844 185.567 28.412H191.507C191.459 29.156 191.675 29.756 192.155 30.212C192.659 30.644 193.367 30.86 194.279 30.86C195.047 30.86 195.683 30.716 196.187 30.428C196.691 30.14 196.943 29.732 196.943 29.204C196.943 28.7 196.667 28.304 196.115 28.016C195.587 27.704 194.699 27.332 193.451 26.9C192.155 26.468 191.063 26.048 190.175 25.64C189.311 25.208 188.567 24.596 187.943 23.804C187.319 23.012 187.007 22.016 187.007 20.816C187.007 19.64 187.355 18.584 188.051 17.648C188.747 16.688 189.719 15.944 190.967 15.416C192.239 14.888 193.703 14.624 195.359 14.624C197.015 14.624 198.455 14.9 199.679 15.452C200.903 15.98 201.851 16.724 202.523 17.684C203.195 18.644 203.531 19.724 203.531 20.924L203.495 21.464H197.915C197.963 20.744 197.747 20.168 197.267 19.736C196.787 19.304 196.103 19.088 195.215 19.088C194.519 19.088 193.943 19.232 193.487 19.52C193.055 19.808 192.839 20.204 192.839 20.708C192.839 21.236 193.127 21.68 193.703 22.04C194.303 22.376 195.227 22.76 196.475 23.192C197.771 23.624 198.839 24.056 199.679 24.488C200.543 24.896 201.275 25.484 201.875 26.252C202.499 26.996 202.811 27.932 202.811 29.06C202.811 30.356 202.415 31.472 201.623 32.408C200.855 33.344 199.787 34.064 198.419 34.568C197.075 35.048 195.539 35.288 193.811 35.288Z" fill="#D9014C"/>
</svg>
